<svg width="370" height="351" viewBox="0 0 370 351" fill="none" xmlns="http://www.w3.org/2000/svg">
<path d="M119.654 52.9526C104.031 37.3298 82.608 33.4231 71.8039 44.2272C60.9998 55.0313 64.9065 76.4545 80.5293 92.0773C86.3076 97.9776 93.3977 102.43 101.222 105.072C107.9 107.29 113.917 111.144 118.726 116.281C118.983 116.551 119.245 116.819 119.51 117.085C130.606 128.18 145.231 131.544 152.176 124.599C159.12 117.654 155.757 103.029 144.662 91.9335C144.396 91.6675 144.128 91.406 143.858 91.1491C138.721 86.3404 134.867 80.3233 132.648 73.6454C130.007 65.8209 125.554 58.7309 119.654 52.9526Z" fill="#97CC64"/>
<mask id="mask0_0_1001" style="mask-type:luminance" maskUnits="userSpaceOnUse" x="65" y="38" width="91" height="91">
<path fill-rule="evenodd" clip-rule="evenodd" d="M119.654 52.9526C104.031 37.3298 82.608 33.4231 71.8039 44.2272C60.9998 55.0313 64.9065 76.4545 80.5293 92.0773C86.3076 97.9776 93.3977 102.43 101.222 105.072C107.9 107.29 113.917 111.144 118.726 116.281C118.983 116.551 119.245 116.819 119.51 117.085C130.606 128.18 145.231 131.544 152.176 124.599C159.12 117.654 155.757 103.029 144.662 91.9335C144.396 91.6675 144.128 91.406 143.858 91.1491C138.721 86.3404 134.867 80.3233 132.648 73.6454C130.007 65.8209 125.554 58.7309 119.654 52.9526Z" fill="white"/>
</mask>
<g mask="url(#mask0_0_1001)">
<path d="M83.1182 27.5687C56.3358 136.56 133.428 72.6273 155.79 146.063C178.152 219.499 37.3288 146.927 37.3288 146.927L32.1448 3.51147" fill="#75AA3C"/>
</g>
<path d="M95.5251 59.0561C96.1507 62.2214 95.6753 65.5054 94.1778 68.3633C93.8109 69.062 94.8698 69.6831 95.2377 68.9829C96.8889 65.835 97.4083 62.2152 96.7087 58.73C96.554 57.956 95.3708 58.2836 95.5251 59.0563V59.0561Z" fill="#75AA3C"/>
<rect x="296.973" y="113.723" width="72.8356" height="97.5255" rx="8.1863" fill="#589BF7"/>
<mask id="mask1_0_1001" style="mask-type:luminance" maskUnits="userSpaceOnUse" x="296" y="113" width="74" height="99">
<rect x="296.973" y="113.723" width="72.8356" height="97.5255" rx="8.1863" fill="white"/>
</mask>
<g mask="url(#mask1_0_1001)">
<path d="M373.11 194.579C365.441 177.603 373.171 216.685 301.792 211.249C230.413 205.813 336.409 240.363 336.409 240.363L387.078 208.838" fill="#2976DF"/>
</g>
<rect x="303.249" y="121.735" width="60.2839" height="54.6188" rx="4.88712" fill="#EFF3FC"/>
<mask id="mask2_0_1001" style="mask-type:luminance" maskUnits="userSpaceOnUse" x="303" y="121" width="61" height="56">
<rect x="303.249" y="121.735" width="60.2839" height="54.6188" rx="4.88712" fill="white"/>
</mask>
<g mask="url(#mask2_0_1001)">
<path d="M278.618 140.354C299.707 142.271 300.23 121.736 316.813 121.736C333.396 121.736 296.972 115.704 296.972 115.704L294.502 120.634" fill="#D6DCF2"/>
</g>
<rect x="307.707" y="186.113" width="49.6215" height="5.53913" rx="2.76956" fill="#2976DF"/>
<rect x="307.707" y="194.579" width="36.0899" height="5.53913" rx="2.76956" fill="#2976DF"/>
<path d="M319.299 137.75C317.534 147.318 316.701 157.034 316.813 166.762H322.615C322.766 160.778 322.685 154.483 323.996 150.046L324.583 150.321L324.384 156.5L328.227 157.084V158.449L324.341 157.859L324.206 162.066C326.65 163.759 329.57 164.627 332.541 164.545V133.28C331.367 133.347 330.19 133.231 329.052 132.935C331.531 132.027 334.226 131.883 336.789 132.52C335.989 133.106 335.033 133.443 334.042 133.487V164.551C337.49 164.456 340.839 163.629 342.575 162.066L342.441 157.865L338.597 158.449V157.084L342.397 156.507L342.198 150.322L342.785 150.047C344.095 154.484 344.017 160.779 344.167 166.763H349.969C350.082 157.034 349.249 147.318 347.482 137.751C344.836 136.264 342 135.144 339.052 134.422V132.157C335.262 131.051 331.236 131.051 327.447 132.157V134.497C324.599 135.217 321.859 136.311 319.299 137.751L319.299 137.75Z" fill="#97CC64"/>
<mask id="mask3_0_1001" style="mask-type:luminance" maskUnits="userSpaceOnUse" x="316" y="131" width="34" height="36">
<path fill-rule="evenodd" clip-rule="evenodd" d="M319.299 137.75C317.534 147.318 316.701 157.034 316.813 166.762H322.615C322.766 160.778 322.685 154.483 323.996 150.046L324.583 150.321L324.384 156.5L328.227 157.084V158.449L324.341 157.859L324.206 162.066C326.65 163.759 329.57 164.627 332.541 164.545V133.28C331.367 133.347 330.19 133.231 329.052 132.935C331.531 132.027 334.226 131.883 336.789 132.52C335.989 133.106 335.033 133.443 334.042 133.487V164.551C337.49 164.456 340.839 163.629 342.575 162.066L342.441 157.865L338.597 158.449V157.084L342.397 156.507L342.198 150.322L342.785 150.047C344.095 154.484 344.017 160.779 344.167 166.763H349.969C350.082 157.034 349.249 147.318 347.482 137.751C344.836 136.264 342 135.144 339.052 134.422V132.157C335.262 131.051 331.236 131.051 327.447 132.157V134.497C324.599 135.217 321.859 136.311 319.299 137.751L319.299 137.75Z" fill="white"/>
</mask>
<g mask="url(#mask3_0_1001)">
<path d="M307.707 144.667C319.496 150.624 318.963 136.694 325.752 134.987C332.541 133.28 318.469 131.327 318.469 131.327L316.813 134.807" fill="#75AA3C"/>
</g>
<path d="M327.697 140.797L326.465 141.619C326.368 141.678 326.296 141.771 326.263 141.88C326.216 142.052 326.277 142.235 326.418 142.344C326.559 142.452 326.752 142.465 326.906 142.375L328.139 141.553C328.236 141.494 328.307 141.401 328.34 141.292C328.388 141.12 328.326 140.937 328.185 140.828C328.044 140.72 327.851 140.707 327.697 140.797Z" fill="#75AA3C"/>
<path d="M362.161 193.488C361.239 194.581 360.141 195.513 358.912 196.245C358.713 196.371 358.65 196.632 358.769 196.836C358.888 197.039 359.146 197.112 359.354 197.001C360.648 196.233 361.806 195.255 362.78 194.107C362.945 193.933 362.945 193.661 362.78 193.488C362.608 193.319 362.332 193.319 362.161 193.488Z" fill="#2976DF"/>
<rect x="0.787262" y="113.723" width="72.8356" height="97.5255" rx="8.1863" fill="#FFC562"/>
<mask id="mask4_0_1001" style="mask-type:luminance" maskUnits="userSpaceOnUse" x="0" y="113" width="74" height="99">
<rect x="0.787262" y="113.723" width="72.8356" height="97.5255" rx="8.1863" fill="white"/>
</mask>
<g mask="url(#mask4_0_1001)">
<path d="M77.6951 115.793C86.685 222.536 35.3087 222.157 -0.0120821 218.238C-35.3329 214.319 53.212 236.915 53.212 236.915L78.1793 232.807L93.2676 172.04" fill="#D89D35"/>
</g>
<rect x="7.06306" y="121.735" width="60.2839" height="54.6188" rx="4.88712" fill="#EFF3FC"/>
<mask id="mask5_0_1001" style="mask-type:luminance" maskUnits="userSpaceOnUse" x="7" y="121" width="61" height="56">
<rect x="7.06306" y="121.735" width="60.2839" height="54.6188" rx="4.88712" fill="white"/>
</mask>
<g mask="url(#mask5_0_1001)">
<path d="M-4.3112 160.495C2.55664 112.838 46.0515 119.001 46.0515 119.001L-21.3535 116.817" fill="#D6DCF2"/>
</g>
<rect x="11.5215" y="186.113" width="49.6215" height="5.53913" rx="2.76956" fill="#E84B23"/>
<rect x="11.5215" y="194.579" width="36.0899" height="5.53913" rx="2.76956" fill="#E84B23"/>
<path d="M49.6531 133.039H44.0684C43.2704 136.177 40.4451 138.374 37.2071 138.374C33.9692 138.374 31.1439 136.177 30.3458 133.039H24.7528V133.043L14.0875 138.373L17.6454 147.266L24.7528 143.708V165.051H49.6532V143.708L56.765 147.266L60.3228 138.373L49.6531 133.039Z" fill="#FFC562"/>
<mask id="mask6_0_1001" style="mask-type:luminance" maskUnits="userSpaceOnUse" x="14" y="133" width="47" height="33">
<path fill-rule="evenodd" clip-rule="evenodd" d="M49.6531 133.039H44.0684C43.2704 136.177 40.4451 138.374 37.2071 138.374C33.9692 138.374 31.1439 136.177 30.3458 133.039H24.7528V133.043L14.0875 138.373L17.6454 147.266L24.7528 143.708V165.051H49.6532V143.708L56.765 147.266L60.3228 138.373L49.6531 133.039Z" fill="white"/>
</mask>
<g mask="url(#mask6_0_1001)">
<path d="M12.4171 146.526C14.0873 138.373 29.5363 133.837 35.4408 135.434C41.3453 137.031 27.2071 125.831 27.2071 125.831L-0.729614 133.87" fill="#D89D35"/>
</g>
<path d="M36.3671 150.346L35.1312 151.575C34.9647 151.746 34.9668 152.02 35.1359 152.189C35.305 152.358 35.5785 152.36 35.7502 152.194L36.9862 150.965C37.0997 150.855 37.145 150.692 37.1049 150.539C37.0648 150.386 36.9454 150.267 36.7926 150.227C36.6397 150.187 36.4771 150.232 36.3671 150.346Z" fill="#D89D35"/>
<path d="M65.857 198.686C65.8194 198.739 65.781 198.792 65.7418 198.844C65.768 198.809 65.7606 198.821 65.7382 198.848L65.6763 198.924C65.5971 199.02 65.5143 199.112 65.4279 199.201C65.3372 199.295 65.2428 199.385 65.1447 199.472C65.1007 199.51 65.0559 199.548 65.0103 199.586L64.934 199.647C64.9827 199.608 64.9392 199.643 64.9139 199.662C64.715 199.81 64.5053 199.944 64.2866 200.061C64.177 200.12 64.0651 200.172 63.9522 200.224C63.8776 200.258 63.9774 200.215 63.9306 200.233L63.8397 200.27C63.7787 200.293 63.7172 200.315 63.6549 200.337C63.4218 200.401 63.2849 200.642 63.3492 200.875C63.4135 201.108 63.6546 201.245 63.8877 201.181C64.9905 200.803 65.9445 200.084 66.6123 199.128C66.733 198.919 66.6629 198.652 66.4553 198.53C66.2457 198.414 65.9823 198.483 65.8563 198.686L65.857 198.686Z" fill="#D89D35"/>
<rect x="59.5103" y="90.9821" width="106.803" height="143.008" rx="12.0041" fill="#FE7578"/>
<mask id="mask7_0_1001" style="mask-type:luminance" maskUnits="userSpaceOnUse" x="59" y="90" width="108" height="144">
<rect x="59.5103" y="90.9822" width="106.803" height="143.008" rx="12.0041" fill="white"/>
</mask>
<g mask="url(#mask7_0_1001)">
<path d="M171.389 145.992C157.111 118.601 212.074 245.994 71.5144 233.99C-69.0453 221.987 182.463 278.246 182.463 278.246L200.268 178.242" fill="#E55A61"/>
</g>
<rect x="68.713" y="102.731" width="88.3979" height="80.091" rx="7.16621" fill="#EFF3FC"/>
<mask id="mask8_0_1001" style="mask-type:luminance" maskUnits="userSpaceOnUse" x="68" y="102" width="90" height="81">
<rect x="68.713" y="102.731" width="88.3979" height="80.091" rx="7.16621" fill="white"/>
</mask>
<g mask="url(#mask8_0_1001)">
<path d="M58.4082 158.964C59.8882 77.6349 155.573 102.731 155.573 102.731L47.2488 95.5168L40.8632 102.731" fill="#D6DCF2"/>
</g>
<rect x="75.2506" y="197.132" width="72.763" height="8.1223" rx="4.06115" fill="#FFC562"/>
<rect x="75.2506" y="209.546" width="52.9208" height="8.1223" rx="4.06115" fill="#FFC562"/>
<path d="M137.07 169.341L130.57 122.196C130.353 121.175 129.422 120.465 128.38 120.525H97.4439C96.4012 120.465 95.4708 121.175 95.2535 122.196L88.7544 169.341C88.7257 169.924 88.9499 170.49 89.3696 170.896C89.7892 171.301 90.3634 171.506 90.945 171.457H107.968C109.047 171.525 110.001 170.76 110.168 169.692L112.435 141.131C112.489 140.886 112.706 140.711 112.957 140.712C113.209 140.712 113.426 140.887 113.479 141.132L115.661 169.688C115.826 170.758 116.78 171.526 117.861 171.458H134.879C135.46 171.507 136.035 171.302 136.454 170.897C136.874 170.491 137.098 169.924 137.07 169.341Z" fill="#FE7578"/>
<path d="M97.6398 117.363H128.043C128.939 117.354 129.661 116.625 129.661 115.728C129.661 114.832 128.939 114.103 128.043 114.094H97.6398C97.0517 114.088 96.5058 114.398 96.21 114.906C95.9143 115.415 95.9143 116.042 96.21 116.551C96.5058 117.059 97.0517 117.369 97.6398 117.363Z" fill="#E55A61"/>
<path d="M107.629 131.4L101.002 138.629C100.445 139.238 101.35 140.148 101.909 139.537L108.536 132.307C109.093 131.699 108.188 130.789 107.629 131.4Z" fill="#E55A61"/>
<path d="M154.51 207.604C154.466 207.777 154.415 207.948 154.357 208.116C154.329 208.196 154.298 208.275 154.268 208.354C154.204 208.522 154.3 208.288 154.257 208.383C154.238 208.425 154.22 208.468 154.2 208.511C154.051 208.835 153.874 209.146 153.672 209.44C153.624 209.51 153.573 209.577 153.525 209.647C153.466 209.731 153.617 209.534 153.505 209.673L153.434 209.761C153.32 209.898 153.201 210.031 153.076 210.158C152.951 210.286 152.821 210.408 152.686 210.524C152.615 210.585 152.542 210.645 152.467 210.702C152.517 210.664 152.508 210.672 152.463 210.704C152.418 210.737 152.371 210.77 152.325 210.802C152.019 210.981 151.916 211.375 152.095 211.681C152.274 211.987 152.667 212.09 152.973 211.911C154.34 210.961 155.323 209.556 155.748 207.946C155.809 207.725 155.747 207.488 155.586 207.325C155.425 207.162 155.189 207.097 154.967 207.154C154.745 207.212 154.571 207.384 154.51 207.605L154.51 207.604Z" fill="#E55A61"/>
<rect x="204.282" y="90.9821" width="106.803" height="143.008" rx="12.0041" fill="#9A7ED9"/>
<mask id="mask9_0_1001" style="mask-type:luminance" maskUnits="userSpaceOnUse" x="204" y="90" width="108" height="144">
<rect x="204.282" y="90.9822" width="106.803" height="143.008" rx="12.0041" fill="white"/>
</mask>
<g mask="url(#mask9_0_1001)">
<path d="M311.085 168.757C305.091 153.727 315.168 241.158 249.887 233.99C184.606 226.822 327.984 259.354 327.984 259.354L339.631 205.254" fill="#6F4EB9"/>
</g>
<rect x="213.485" y="102.731" width="88.3979" height="80.091" rx="7.16621" fill="#EFF3FC"/>
<mask id="mask10_0_1001" style="mask-type:luminance" maskUnits="userSpaceOnUse" x="213" y="102" width="89" height="81">
<rect x="213.485" y="102.731" width="88.3979" height="80.091" rx="7.16621" fill="white"/>
</mask>
<g mask="url(#mask10_0_1001)">
<path d="M210.71 142.776C204.282 106.336 230.822 102.475 270.953 102.731C311.085 102.986 204.282 90.9821 204.282 90.9821L191.432 95.0907" fill="#D6DCF2"/>
</g>
<rect x="220.022" y="197.132" width="72.763" height="8.1223" rx="4.06115" fill="#6F4EB9"/>
<rect x="220.022" y="209.546" width="52.9208" height="8.1223" rx="4.06115" fill="#6F4EB9"/>
<path d="M271.179 130.485V124.045H259.23V139.377C259.23 140.231 258.538 140.923 257.684 140.923C256.83 140.923 256.137 140.231 256.137 139.377V124.045H244.19V130.602C244.19 135.684 241.246 140.306 236.64 142.455L234.301 143.547V168.366C234.301 168.83 234.485 169.274 234.812 169.602C235.14 169.929 235.584 170.113 236.048 170.113H251.867C252.697 170.114 253.412 169.53 253.579 168.718L256.829 152.923H258.536L261.786 168.718C261.953 169.53 262.669 170.114 263.499 170.113H279.318C280.283 170.113 281.066 169.331 281.066 168.366V143.432L278.726 142.34C274.12 140.19 271.177 135.568 271.179 130.485Z" fill="#9A7ED9"/>
<path d="M274.407 124.045V130.485C274.415 134.311 276.629 137.788 280.092 139.414L281.068 139.869V124.045H274.407Z" fill="#9A7ED9"/>
<path d="M240.961 130.602V124.045H234.3V139.984L235.276 139.529C238.738 137.904 240.952 134.427 240.961 130.602Z" fill="#9A7ED9"/>
<path d="M280.856 117.756C280.856 116.476 279.819 115.438 278.539 115.438H236.829C235.549 115.438 234.511 116.476 234.511 117.756V121.689H280.856V117.756Z" fill="#6F4EB9"/>
<path d="M271.805 147.781L269.998 151.998C269.831 152.305 269.932 152.69 270.228 152.876C270.534 153.052 270.926 152.95 271.106 152.646L272.914 148.429C273.08 148.121 272.98 147.737 272.683 147.55C272.377 147.374 271.985 147.477 271.805 147.781Z" fill="#6F4EB9"/>
<path d="M283.401 215.789L280.375 218.18C280.125 218.431 280.125 218.836 280.375 219.087C280.629 219.327 281.027 219.327 281.282 219.087L284.309 216.696C284.558 216.445 284.558 216.04 284.309 215.789C284.054 215.549 283.656 215.549 283.401 215.789Z" fill="#6F4EB9"/>
<path d="M178.198 109.45C166.947 105.897 168.95 80.4128 190.993 83.4102C213.036 86.4077 209.159 126.881 243.601 124.549C279.375 122.127 276.978 207.699 229.412 196C194.577 187.431 178.198 109.45 178.198 109.45Z" fill="#3A3530"/>
<mask id="mask11_0_1001" style="mask-type:luminance" maskUnits="userSpaceOnUse" x="171" y="83" width="98" height="115">
<path fill-rule="evenodd" clip-rule="evenodd" d="M178.198 109.45C166.947 105.897 168.95 80.4128 190.993 83.4102C213.036 86.4077 209.159 126.881 243.601 124.549C279.375 122.127 276.978 207.699 229.412 196C194.577 187.431 178.198 109.45 178.198 109.45Z" fill="white"/>
</mask>
<g mask="url(#mask11_0_1001)">
<path d="M251.472 196.16C254.822 175.527 211.422 169.072 214.65 160.311C217.877 151.549 221.121 141.679 211.498 137.748C201.875 133.817 194.799 155.143 194.799 155.143L191.355 172.289L197.327 185.461L252.224 199.387" fill="#190000"/>
</g>
<path d="M173.951 106.228C173.951 106.228 185.154 98.8445 194.798 104.618L193.631 109.356L176.945 110.318L173.951 106.228Z" fill="#FE7578"/>
<path d="M108.514 296.796C106.183 287.403 69.7934 164.13 191.783 164.505C313.773 164.881 268.07 306.917 268.07 306.917L108.514 296.796Z" fill="#FE7578"/>
<mask id="mask12_0_1001" style="mask-type:luminance" maskUnits="userSpaceOnUse" x="101" y="164" width="176" height="143">
<path fill-rule="evenodd" clip-rule="evenodd" d="M108.514 296.796C106.183 287.403 69.7934 164.13 191.783 164.505C313.773 164.881 268.07 306.917 268.07 306.917L108.514 296.796Z" fill="white"/>
</mask>
<g mask="url(#mask12_0_1001)">
<ellipse cx="189.43" cy="166.034" rx="31.3797" ry="22.9624" fill="#F0F3FC"/>
<ellipse cx="189.43" cy="166.034" rx="23.3958" ry="17.1202" fill="#FF9763"/>
<mask id="mask13_0_1001" style="mask-type:luminance" maskUnits="userSpaceOnUse" x="166" y="148" width="47" height="36">
<ellipse cx="189.43" cy="166.034" rx="23.3958" ry="17.1202" fill="white"/>
</mask>
<g mask="url(#mask13_0_1001)">
<ellipse cx="175.865" cy="164.999" rx="28.8478" ry="13.9909" fill="#E84B23"/>
</g>
<path d="M250.345 211.919C250.157 219.363 246.661 240.862 246.661 240.862L252.386 225.606L250.345 211.919Z" fill="#FE7578"/>
<path d="M89.0266 252.46C109.695 256.876 113.316 260.472 113.316 260.472L89.0266 252.46Z" fill="#FE7578"/>
<path d="M92.6527 256.162C100.806 255.427 108.855 258.417 114.552 264.296C114.552 264.296 97.7291 216.628 123.836 215.54C149.944 214.452 249.407 217.642 252.386 225.606C255.364 233.57 250.384 260.473 250.384 260.473C250.384 260.473 259.335 273.86 276.979 260.473C294.622 247.086 283.005 284.797 283.005 284.797L110.149 302.564" fill="#BA393C"/>
</g>
<path d="M188.771 181.221C188.155 196.726 160.196 202.244 154.214 168.548C154.214 168.548 171.284 159.12 171.566 163.779C172.465 178.646 188.771 181.221 188.771 181.221Z" fill="#F0F3FC"/>
<path d="M188.624 181.221C189.24 196.726 216.017 201.197 224.505 168.86C224.505 168.86 206.11 159.12 205.829 163.779C204.93 178.646 188.624 181.221 188.624 181.221Z" fill="#F0F3FC"/>
<path d="M247.653 318.196H121.095L113.384 233.57C112.685 225.903 117.459 219.577 124.058 219.577H244.691C251.29 219.577 256.063 225.903 255.364 233.57L247.653 318.196Z" fill="#F0F3FC"/>
<mask id="mask14_0_1001" style="mask-type:luminance" maskUnits="userSpaceOnUse" x="113" y="219" width="143" height="100">
<path fill-rule="evenodd" clip-rule="evenodd" d="M247.653 318.196H121.095L113.384 233.57C112.685 225.903 117.459 219.577 124.058 219.577H244.69C251.29 219.577 256.063 225.903 255.364 233.57L247.653 318.196Z" fill="white"/>
</mask>
<g mask="url(#mask14_0_1001)">
<path d="M98.5789 266.332C125.653 252.945 169.114 295.201 192.104 306.699C215.095 318.196 234.434 253.857 265.859 262.829C297.285 271.801 233.669 319.79 233.669 319.79L151.051 324.498" fill="#D6DCF2"/>
</g>
<path d="M193.478 263.734C193.107 267.405 189.396 270.128 185.164 270.052C180.932 269.975 177.328 267.121 177.099 263.439C176.851 259.465 180.574 256.077 185.432 256.164C190.29 256.252 193.878 259.772 193.478 263.734Z" fill="#FF9763"/>
<path d="M285.45 332.836L294.666 331.564C294.666 331.564 311.005 351.455 268.276 359.986L285.45 332.836Z" fill="#3A3530"/>
<path d="M273.08 330.363C279.167 329.694 285.303 329.599 291.407 330.081C303.356 331.967 292.113 355.374 268.276 359.986C268.276 359.986 284.092 339.028 273.08 330.363Z" fill="#F0F3FC"/>
<path d="M224.844 336.092C224.844 336.092 252.71 331.946 273.08 330.364C284.092 339.029 268.276 359.986 268.276 359.987C266.761 360.281 265.232 360.493 263.694 360.622C236.758 362.876 213.715 360.559 210.599 358.136C207.482 355.712 224.844 336.092 224.844 336.092Z" fill="#3A3530"/>
<path d="M206.724 321.838C220.821 330.843 230.024 337.094 230.024 337.094C234.172 341.803 234.3 348.822 230.327 353.679C227.983 356.861 224.168 358.617 220.226 358.326C214.43 357.932 208.617 357.389 202.819 356.707C204.912 347.111 207.624 332.067 206.724 321.838Z" fill="#FF9763"/>
<path d="M63.7456 260.944C77.443 242.627 164.277 294.722 206.724 321.838C207.625 332.067 204.913 347.111 202.819 356.706C115.293 346.412 31.3048 304.326 63.7456 260.944Z" fill="#274B69"/>
<mask id="mask15_0_1001" style="mask-type:luminance" maskUnits="userSpaceOnUse" x="56" y="257" width="151" height="100">
<path fill-rule="evenodd" clip-rule="evenodd" d="M63.7456 260.944C77.443 242.627 164.277 294.722 206.724 321.838C207.625 332.067 204.913 347.111 202.819 356.706C115.293 346.412 31.3048 304.326 63.7456 260.944Z" fill="white"/>
</mask>
<g mask="url(#mask15_0_1001)">
<path d="M67.9866 330.363C88.8418 323.349 95.4191 318.932 141.13 329.758C154.722 332.978 178.373 306.83 191.063 301.608C203.753 296.387 211.847 329.758 211.847 329.758L170.44 348.99L141.631 352.497L80.6896 344.872L67.9866 330.363Z" fill="#11314B"/>
<circle cx="60.3155" cy="266.332" r="18.8525" fill="#11314B"/>
<path d="M41.7163 263.383C26.7703 281.075 153.346 351.652 188.771 354.775" stroke="#11314B" stroke-width="1.28789" stroke-linecap="round" stroke-linejoin="round" stroke-dasharray="2.58"/>
</g>
<ellipse cx="188.771" cy="143.37" rx="23.0761" ry="32.3111" fill="#FF9763"/>
<mask id="mask16_0_1001" style="mask-type:luminance" maskUnits="userSpaceOnUse" x="165" y="111" width="47" height="65">
<ellipse cx="188.771" cy="143.37" rx="23.0761" ry="32.3111" fill="white"/>
</mask>
<g mask="url(#mask16_0_1001)">
<ellipse opacity="0.27" cx="174.921" cy="161.589" rx="5.87126" ry="4.47082" transform="rotate(-2.5189 174.921 161.589)" fill="#E84B23"/>
<ellipse opacity="0.27" cx="202.621" cy="160.371" rx="5.87126" ry="4.47082" transform="rotate(-2.5189 202.621 160.371)" fill="#E84B23"/>
<rect x="178.7" y="147.119" width="4.17474" height="7.70018" rx="2.08737" transform="rotate(1.59305 178.7 147.119)" fill="#190000"/>
<rect x="194.746" y="146.949" width="4.1748" height="7.70028" rx="2.0874" transform="rotate(1.5948 194.746 146.949)" fill="#190000"/>
<path d="M180.39 142.281C176.097 143.404 177.205 145.759 179.935 145.231C182.664 144.703 183.195 141.546 180.39 142.281Z" fill="#190000"/>
<path d="M196.848 141.922C201.072 143.283 200.162 145.402 197.466 144.724C194.771 144.045 194.089 141.033 196.848 141.922Z" fill="#190000"/>
<path d="M191.032 156.149C191.02 157.56 189.816 156.99 188.325 156.978C186.835 156.965 185.622 157.514 185.634 156.103C185.724 154.67 186.919 153.558 188.354 153.57C189.79 153.582 190.966 154.715 191.032 156.149Z" fill="#E84B23"/>
<path d="M182.536 164.008C185.08 174.038 194.38 169.182 194.148 162.863C194.131 162.536 193.911 162.255 193.598 162.16C190.069 161.245 186.333 161.57 183.016 163.08C182.647 163.227 182.443 163.623 182.536 164.008Z" fill="#C1525F"/>
<mask id="mask17_0_1001" style="mask-type:luminance" maskUnits="userSpaceOnUse" x="182" y="161" width="13" height="9">
<path fill-rule="evenodd" clip-rule="evenodd" d="M182.536 164.008C185.08 174.038 194.38 169.182 194.148 162.863C194.131 162.536 193.911 162.255 193.598 162.159C190.069 161.245 186.333 161.57 183.016 163.08C182.647 163.227 182.443 163.622 182.536 164.008Z" fill="white"/>
</mask>
<g mask="url(#mask17_0_1001)">
<ellipse cx="190.157" cy="169.14" rx="5.18734" ry="4.62991" transform="rotate(-22.8319 190.157 169.14)" fill="#993443"/>
<path d="M184.212 162.257C184.219 162.854 184.353 163.442 184.605 163.983C185.772 164.911 190.958 164.007 191.622 163.362C191.722 162.584 191.73 161.798 191.647 161.018L184.976 161.825" fill="#F0F3FC"/>
</g>
</g>
<path d="M167.378 139.695C154.061 133.487 151.152 143.407 157.275 151.549C161.867 157.656 166.976 156.851 169.244 156.067" fill="#FF9763"/>
<path d="M207.774 139.695C221.092 133.487 224 143.407 217.877 151.549C213.95 156.771 209.645 156.939 207.063 156.387" fill="#FF9763"/>
<path d="M181.997 124.383C178.553 150.365 163.168 146.368 163.168 146.368C163.168 146.368 154.214 107.95 187.278 108.394C220.341 108.838 211.846 143.37 211.846 143.37C211.846 143.37 185.671 143.925 181.997 124.383Z" fill="#3A3530"/>
<path d="M92.9741 332.836L83.7579 331.564C83.7579 331.564 67.4193 351.455 110.149 359.986L92.9741 332.836Z" fill="#3A3530"/>
<path d="M105.343 330.363C99.257 329.694 93.1211 329.599 87.0169 330.081C75.0679 331.967 86.3113 355.374 110.149 359.986C110.147 359.986 94.332 339.028 105.343 330.363Z" fill="#F0F3FC"/>
<path d="M153.58 336.092C153.58 336.092 125.714 331.946 105.343 330.364C94.332 339.029 110.148 359.986 110.148 359.987C111.663 360.281 113.192 360.493 114.73 360.622C141.666 362.876 164.709 360.559 167.825 358.136C170.942 355.712 153.58 336.092 153.58 336.092Z" fill="#3A3530"/>
<path d="M171.7 321.838C157.603 330.843 148.4 337.094 148.4 337.094C144.252 341.803 144.124 348.822 148.097 353.679C150.441 356.861 154.256 358.617 158.198 358.326C163.994 357.932 169.807 357.389 175.605 356.707C173.512 347.111 170.8 332.067 171.7 321.838Z" fill="#FF9763"/>
<mask id="mask18_0_1001" style="mask-type:luminance" maskUnits="userSpaceOnUse" x="145" y="321" width="31" height="38">
<path fill-rule="evenodd" clip-rule="evenodd" d="M171.7 321.838C157.603 330.843 148.4 337.094 148.4 337.094C144.252 341.803 144.124 348.822 148.097 353.679C150.441 356.861 154.256 358.617 158.198 358.326C163.994 357.932 169.807 357.389 175.605 356.707C173.512 347.111 170.8 332.067 171.7 321.838Z" fill="white"/>
</mask>
<g mask="url(#mask18_0_1001)">
<path d="M150.148 333.21C148.896 345.985 159.917 359.762 169.937 355.253C179.957 350.744 165.198 323.743 171.701 321.838C178.204 319.932 182.462 361.538 182.462 361.538C182.462 361.538 179.707 362.767 177.202 363.769C174.697 364.771 151.401 364.771 151.401 364.771L138.626 345.775L141.131 329.758L153.581 336.092" fill="#E84B23"/>
</g>
<path d="M314.679 260.944C300.982 242.627 214.148 294.722 171.7 321.838C170.8 332.067 173.512 347.111 175.605 356.706C263.131 346.412 347.119 304.326 314.679 260.944Z" fill="#274B69"/>
<mask id="mask19_0_1001" style="mask-type:luminance" maskUnits="userSpaceOnUse" x="171" y="257" width="151" height="100">
<path fill-rule="evenodd" clip-rule="evenodd" d="M314.679 260.944C300.982 242.627 214.148 294.722 171.7 321.838C170.8 332.067 173.512 347.111 175.605 356.706C263.131 346.412 347.119 304.326 314.679 260.944Z" fill="white"/>
</mask>
<g mask="url(#mask19_0_1001)">
<path d="M243.601 273.843C260.865 275.847 298.825 253.987 310.083 260.027C321.341 266.067 333.5 274.986 327.488 297.029C321.476 319.073 330.001 306.917 330.001 306.917L333.508 257.127L289.767 231.621L243.601 273.843Z" fill="#11314B"/>
<ellipse cx="325.312" cy="266.332" rx="21.0309" ry="22.9352" fill="#11314B"/>
<path d="M178.855 348.156C178.855 348.156 310.43 327.405 321.799 268.886" stroke="#11314B" stroke-width="1.28789" stroke-linecap="round" stroke-linejoin="round" stroke-dasharray="2.58"/>
<path d="M181.883 310.605C178.58 326.279 189.057 361.538 189.057 361.538L168.2 363.506L161.9 314.917" fill="#589BF7"/>
</g>
<circle cx="188.355" cy="195.865" r="2.03011" fill="#190000"/>
<circle cx="188.355" cy="207.621" r="2.03011" fill="#190000"/>
<path d="M193.304 116.211C193.209 118.158 193.689 120.09 194.684 121.766C194.954 122.224 195.544 122.377 196.004 122.109C196.463 121.84 196.619 121.251 196.353 120.79C196.24 120.6 196.133 120.407 196.034 120.21C195.988 120.118 195.943 120.025 195.9 119.932C195.876 119.878 195.852 119.824 195.828 119.77C195.868 119.866 195.867 119.861 195.824 119.757C195.673 119.373 195.547 118.98 195.447 118.581C195.397 118.381 195.355 118.179 195.32 117.976C195.313 117.938 195.262 117.575 195.289 117.796C195.279 117.709 195.269 117.621 195.261 117.533C195.22 117.094 195.212 116.652 195.237 116.211C195.233 115.678 194.802 115.247 194.27 115.244C193.741 115.255 193.315 115.682 193.303 116.211L193.304 116.211Z" fill="#190000"/>
<path d="M239.282 143.744C239.656 144.089 240.009 144.457 240.339 144.844C240.423 144.944 240.507 145.046 240.589 145.147C240.637 145.206 240.658 145.235 240.599 145.157C240.643 145.215 240.686 145.274 240.73 145.332C240.885 145.543 241.033 145.759 241.175 145.979C241.451 146.407 241.701 146.851 241.923 147.309C241.98 147.427 242.035 147.546 242.088 147.665C242.095 147.682 242.168 147.845 242.126 147.749C242.085 147.653 242.155 147.819 242.162 147.835C242.265 148.092 242.359 148.351 242.447 148.614C242.589 149.129 243.122 149.431 243.637 149.289C244.151 149.147 244.454 148.615 244.312 148.1C243.591 145.914 242.332 143.945 240.65 142.375C240.406 142.127 240.048 142.028 239.712 142.117C239.376 142.206 239.114 142.469 239.025 142.805C238.936 143.141 239.034 143.499 239.283 143.742L239.282 143.744Z" fill="#190000"/>
<path d="M139.549 253.144C142.8 256.391 146.511 259.142 150.563 261.307C151.66 261.893 152.638 260.225 151.539 259.638C147.631 257.555 144.051 254.906 140.916 251.777C140.535 251.421 139.941 251.431 139.572 251.8C139.203 252.169 139.193 252.763 139.549 253.144Z" fill="#D6DCF2"/>
<path d="M241.439 307.101L233.181 310.884C232.724 311.156 232.57 311.745 232.835 312.206C233.112 312.657 233.695 312.81 234.157 312.553L242.415 308.77C242.872 308.498 243.027 307.909 242.762 307.448C242.485 306.997 241.902 306.844 241.439 307.101Z" fill="#11314B"/>
<path d="M231.156 230.284C231.282 230.367 231.406 230.451 231.529 230.538C231.59 230.582 231.651 230.626 231.711 230.671C231.844 230.769 231.541 230.533 231.766 230.712C232.001 230.9 232.228 231.097 232.448 231.303C232.656 231.499 232.856 231.703 233.048 231.916C233.148 232.028 233.247 232.141 233.343 232.256C233.391 232.314 233.439 232.373 233.486 232.431C233.594 232.566 233.466 232.402 233.528 232.486C233.879 232.956 234.193 233.453 234.466 233.973C234.536 234.106 234.602 234.241 234.666 234.377C234.692 234.432 234.717 234.486 234.742 234.541C234.747 234.552 234.858 234.821 234.786 234.642C234.898 234.922 235 235.205 235.091 235.491C235.233 236.006 235.765 236.309 236.28 236.167C236.795 236.025 237.098 235.492 236.956 234.977C236.129 232.364 234.425 230.116 232.132 228.615C231.67 228.35 231.081 228.504 230.809 228.962C230.552 229.424 230.705 230.007 231.156 230.284H231.156Z" fill="#D6DCF2"/>
<path d="M105.755 281.943C104.37 283.642 103.582 285.748 103.511 287.939C103.515 288.471 103.945 288.901 104.477 288.905C105.007 288.895 105.433 288.468 105.444 287.939C105.451 287.702 105.465 287.466 105.491 287.231C105.497 287.172 105.504 287.113 105.512 287.055C105.497 287.165 105.498 287.163 105.515 287.048C105.537 286.932 105.555 286.815 105.578 286.699C105.666 286.264 105.786 285.837 105.938 285.42C105.978 285.309 106.021 285.198 106.066 285.089C105.99 285.275 106.131 284.946 106.146 284.914C106.234 284.726 106.328 284.542 106.429 284.361C106.544 284.155 106.667 283.953 106.799 283.757C106.865 283.658 106.932 283.561 107.002 283.466C107.037 283.418 107.072 283.371 107.108 283.324C107.048 283.402 107.052 283.398 107.122 283.31C107.486 282.928 107.486 282.326 107.122 281.943C106.742 281.572 106.134 281.572 105.754 281.943L105.755 281.943Z" fill="#11314B"/>
<path d="M242.26 190.184C245.058 191.849 247.058 194.581 247.799 197.751C248.082 198.962 249.947 198.449 249.664 197.237C248.788 193.581 246.469 190.434 243.236 188.514C242.777 188.266 242.204 188.426 241.941 188.877C241.677 189.328 241.819 189.906 242.261 190.184H242.26Z" fill="#BA393C"/>
<path d="M127.79 204.271L127.305 205.237C127.236 205.345 127.196 205.469 127.19 205.597C127.144 205.98 127.324 206.356 127.652 206.56L127.883 206.657C128.051 206.703 128.228 206.703 128.397 206.657L128.628 206.56C128.771 206.476 128.89 206.356 128.974 206.213L129.46 205.247C129.529 205.14 129.569 205.016 129.574 204.888C129.621 204.504 129.441 204.129 129.113 203.925L128.882 203.827C128.714 203.781 128.536 203.781 128.368 203.827L128.137 203.925C127.994 204.009 127.874 204.128 127.79 204.271Z" fill="#BA393C"/>
<path d="M344.339 28.7837L336.535 28.5626L335.837 28.5428C323.666 28.2071 311.729 25.1205 300.921 19.5144L300.826 19.4654L293.339 15.5891C294.313 12.8428 295.353 10.1212 296.457 7.42432C296.535 7.23566 296.611 7.04632 296.69 6.85866C298.449 2.70334 302.839 0.308396 307.285 1.07946C307.543 1.12426 307.8 1.17982 308.057 1.24612L320.616 4.49356L338.414 9.09558C343.073 10.2973 346.147 14.7335 345.635 19.5178C345.577 20.0572 345.505 20.5955 345.44 21.1341C345.129 23.6933 344.763 26.2432 344.339 28.7837Z" fill="#FF999A"/>
<path d="M329.544 72.9107C327.217 74.5466 324.29 75.078 321.537 74.3643L316.747 73.1259L304.847 70.049L294.291 67.3194L291.244 66.5318C286.577 65.3257 283.503 60.876 284.026 56.0839C284.12 55.2291 284.239 54.3765 284.346 53.5234C284.616 51.3611 284.926 49.2041 285.276 47.0523C285.944 42.9356 286.754 38.8449 287.707 34.7805C288.667 30.6835 289.769 26.6235 291.013 22.6005C291.74 20.2478 292.516 17.9108 293.339 15.5895L298.905 18.4715L300.921 19.5148C302.252 20.2037 303.598 20.8542 304.958 21.4663C312.687 24.9473 320.917 27.186 329.344 28.0998C331.561 28.3403 333.786 28.485 336.014 28.5482L344.34 28.7834C343.938 31.2144 343.488 33.6358 342.988 36.0475C342.134 40.1671 341.138 44.2525 339.998 48.3038C338.87 52.3172 337.602 56.2897 336.196 60.2212C335.353 62.5778 334.46 64.9174 333.518 67.2399C333.316 67.7372 333.12 68.237 332.912 68.7316C332.206 70.4145 331.038 71.8633 329.544 72.9107Z" fill="#FE7578"/>
<mask id="mask20_0_1001" style="mask-type:luminance" maskUnits="userSpaceOnUse" x="283" y="15" width="62" height="60">
<path fill-rule="evenodd" clip-rule="evenodd" d="M329.544 72.9107C327.217 74.5465 324.29 75.078 321.537 74.3642L316.747 73.1259L304.847 70.049L294.291 67.3193L291.244 66.5317C286.577 65.3256 283.503 60.8759 284.026 56.0838C284.12 55.229 284.239 54.3764 284.346 53.5233C284.616 51.361 284.926 49.204 285.276 47.0523C285.944 42.9355 286.754 38.8449 287.707 34.7804C288.667 30.6834 289.769 26.6234 291.013 22.6004C291.74 20.2477 292.516 17.9107 293.339 15.5894L298.905 18.4715L300.921 19.5147C302.252 20.2036 303.598 20.8541 304.958 21.4662C312.687 24.9472 320.917 27.1859 329.344 28.0997C331.561 28.3403 333.786 28.4849 336.014 28.5481L344.34 28.7833C343.938 31.2144 343.488 33.6358 342.988 36.0474C342.134 40.167 341.138 44.2525 339.998 48.3037C338.87 52.3171 337.602 56.2896 336.196 60.2211C335.353 62.5777 334.46 64.9173 333.518 67.2398C333.316 67.7371 333.12 68.2369 332.912 68.7315C332.206 70.4144 331.038 71.8633 329.544 72.9107Z" fill="white"/>
</mask>
<g mask="url(#mask20_0_1001)">
<path d="M282.417 61.9282C334.102 73.4475 334.021 60.9426 339.357 50.9027C344.694 40.8629 344.009 73.2131 344.009 73.2131C344.009 73.2131 330.984 83.5374 330.015 83.8128C329.046 84.0881 284.041 73.2524 284.041 73.2524L280.132 72.0596" fill="#E55A61"/>
<path d="M325.001 37.1455C322.104 38.8559 318.615 39.2504 315.408 38.2301C313.642 37.673 312.032 36.707 310.709 35.4106C307.68 32.4436 306.466 28.0838 307.528 23.9782C308.589 19.8727 311.764 16.6475 315.852 15.5211C321.579 13.9435 327.589 16.853 329.904 22.3238C332.218 27.7946 330.122 34.1337 325.001 37.1455H325.001Z" fill="#E55A61"/>
</g>
<path d="M324.27 34.6949C318.959 37.8159 312.14 36.33 308.609 31.2819C305.078 26.2337 306.02 19.3193 310.773 15.4001C315.527 11.4808 322.494 11.8734 326.777 16.3018C331.059 20.7302 331.219 27.7066 327.143 32.3261C326.316 33.2617 325.346 34.0611 324.27 34.6949Z" fill="#FFC562"/>
<path d="M322.51 31.7063C320.461 32.9157 317.994 33.1946 315.726 32.4733C312.899 31.5782 310.756 29.2535 310.093 26.3623C309.431 23.4712 310.347 20.4453 312.503 18.4081C313.502 17.4652 314.716 16.7811 316.04 16.4155C318.938 15.6211 322.039 16.438 324.169 18.5567C326.009 20.3861 326.896 22.9652 326.571 25.5393C326.246 28.1133 324.746 30.3912 322.51 31.7063Z" fill="#FF9763"/>
<path d="M331.474 14.6117C331.734 14.6699 331.981 14.7774 332.201 14.9284C332.306 14.9938 332.404 15.0703 332.493 15.1565C332.598 15.2535 332.696 15.3575 332.787 15.4678C332.831 15.5212 332.777 15.451 332.82 15.5125L332.874 15.5884C332.913 15.6444 332.949 15.7021 332.984 15.7613C333.021 15.8255 333.056 15.8911 333.089 15.958C333.115 16.0071 333.137 16.058 333.155 16.1103C333.254 16.3566 333.306 16.6189 333.311 16.8842C333.308 17.0156 333.376 17.1383 333.49 17.2048C333.603 17.2714 333.744 17.2714 333.857 17.2048C333.97 17.1383 334.039 17.0156 334.036 16.8842C333.984 15.4806 333.023 14.275 331.666 13.9125C331.54 13.8751 331.404 13.9087 331.31 14.0002C331.216 14.0918 331.178 14.227 331.212 14.3539C331.246 14.4807 331.346 14.5793 331.473 14.6117H331.474Z" fill="#FE7578"/>
<path d="M298.142 53.6559C299.321 55.7455 301.387 57.1846 303.756 57.5659C303.948 57.6123 304.143 57.5014 304.202 57.3126C304.254 57.1196 304.141 56.9208 303.949 56.8665C301.765 56.5321 299.855 55.2136 298.768 53.2898C298.54 52.8824 297.914 53.2476 298.142 53.6559V53.6559Z" fill="#E55A61"/>
<path d="M46.2721 254.671C45.2684 254.881 44.4355 255.578 44.0515 256.529C44.0066 256.693 44.103 256.863 44.2672 256.908C44.4308 256.948 44.5974 256.854 44.6468 256.693C44.6242 256.748 44.661 256.661 44.6623 256.659L44.6939 256.593C44.7177 256.545 44.7431 256.497 44.7698 256.451C44.8238 256.358 44.8829 256.268 44.9469 256.182C44.9133 256.228 44.9694 256.154 44.9709 256.152L45.0181 256.096C45.0533 256.055 45.0896 256.015 45.127 255.977C45.2019 255.899 45.2812 255.826 45.3645 255.758C45.3698 255.754 45.4289 255.708 45.4023 255.728C45.3758 255.748 45.4359 255.703 45.4418 255.699C45.4894 255.666 45.5383 255.632 45.5878 255.601C45.679 255.544 45.7734 255.492 45.8706 255.446L45.9378 255.415C45.9682 255.401 45.9067 255.426 45.9586 255.406C46.0105 255.386 46.0594 255.368 46.1098 255.352C46.2168 255.317 46.3259 255.289 46.4364 255.268C46.5997 255.221 46.6955 255.052 46.6519 254.888C46.6038 254.726 46.4362 254.63 46.2722 254.672L46.2721 254.671Z" fill="#E84B23"/>
</svg>
